<?xml version="1.0" encoding="UTF-8" standalone="no"?>
<svg
   viewBox="0 0 942.04999 263.57251"
   version="1.1"
   id="svg10"
   sodipodi:docname="c709afd645cce25be3f6e182530cd54f.svg"
   width="942.04999"
   height="263.57251"
   xmlns:inkscape="http://www.inkscape.org/namespaces/inkscape"
   xmlns:sodipodi="http://sodipodi.sourceforge.net/DTD/sodipodi-0.dtd"
   xmlns="http://www.w3.org/2000/svg"
   xmlns:svg="http://www.w3.org/2000/svg">
  <defs
     id="defs14" />
  <sodipodi:namedview
     id="namedview12"
     pagecolor="#ffffff"
     bordercolor="#666666"
     borderopacity="1.0"
     inkscape:pageshadow="2"
     inkscape:pageopacity="0.0"
     inkscape:pagecheckerboard="0" />
  <path
     d="M 131.69,0.09 213.36,0 76.34,136.95 40.63,172.46 0,131.78 Z m -0.76,122.28 c 1.06,-1.4 3.01,-0.71 4.49,-0.89 l 77.87,0.02 -70.97,70.9 -40.84,-40.59 z"
     fill="#44d1fd"
     id="path2" />
  <path
     opacity="0.54"
     d="m 328.15,57.21 89.03,0.03 -0.01,17.53 c -23.29,0 -46.59,-0.07 -69.89,0.03 -1.78,0.59 -0.94,2.82 -1.14,4.19 l 0.07,47.15 c 0.59,1.77 2.83,0.92 4.21,1.14 l 59.76,-0.03 v 17.51 c -18.58,-0.01 -37.15,-0.01 -55.73,0 -2.76,-0.01 -5.55,-0.18 -8.28,0.29 l -0.21,66.56 c -5.99,-0.24 -11.97,-0.02 -17.96,-0.15 L 327.99,60.04 Z m 110.62,0.03 h 18.28 l 0.01,104.76 -0.2,49.33 c -5.95,-0.11 -11.9,-0.14 -17.84,0.02 -0.46,-2.44 -0.27,-4.92 -0.27,-7.38 z m 178.92,12.99 18.34,0.01 0.03,31 c 8.97,0.22 17.99,-0.4 26.94,0.31 -0.25,5.56 -0.04,11.12 -0.14,16.68 -8.92,0.02 -17.83,0.09 -26.74,-0.04 l -0.07,61.74 c 0.19,5.72 1.41,12.63 6.97,15.58 6.35,3.61 14.15,1.91 20.16,-1.57 v 17.96 c -6.62,3 -14.17,3.36 -21.28,2.39 -10.02,-1.53 -19.62,-8.36 -22.65,-18.29 -2.01,-5.44 -1.55,-11.31 -1.59,-16.99 l -0.04,-60.13 -0.45,-0.51 c -6.33,-0.34 -12.68,0.05 -19.02,-0.17 0.04,-5.66 -0.22,-11.32 0.14,-16.97 6.44,-0.11 12.91,0.29 19.34,-0.2 z m 77.48,-0.06 c 6.1,0.21 12.2,-0.07 18.29,0.14 l 0.42,0.46 c 0.23,10.18 -0.31,20.39 0.24,30.55 8.69,-0.16 17.38,-0.03 26.06,-0.08 l 0.06,16.86 c -8.74,0.33 -17.51,0.13 -26.25,0.08 l -0.1,62.81 c -0.01,5.47 1.57,11.94 6.86,14.63 6.49,3.54 14.36,1.72 20.39,-1.9 l -0.02,18.06 c -6.43,2.9 -13.68,3.46 -20.62,2.66 -9.01,-1.2 -17.83,-6.29 -22.06,-14.54 -2.04,-4.32 -3.18,-9.1 -3.37,-13.87 v -67.78 c -6.33,-0.01 -12.65,0.02 -18.97,0 l 0.04,-17.07 c 6.23,0.17 12.46,-0.05 18.69,0.16 0.66,-10.36 -0.05,-20.79 0.34,-31.17 z m 89.02,31.65 c 12.66,-5.25 27.27,-5.35 40.2,-0.95 14.81,5.11 26.27,18.03 30.47,33.02 2.75,8.31 2.64,17.14 2.25,25.78 l -87.05,0.09 c 0.72,9.27 3.49,18.72 9.93,25.68 9.15,10.67 24.9,14.63 38.2,10.44 9.33,-2.75 16.61,-9.93 21.4,-18.18 5.3,2.37 10.45,5.07 15.73,7.5 -7.22,13.76 -20.35,24.69 -35.78,27.65 -12.67,2.37 -26.53,2.43 -38.15,-3.83 -15.08,-7.49 -25.46,-22.74 -28.42,-39.14 -2.15,-12.6 -1.48,-25.93 3.26,-37.89 4.97,-13.13 15.02,-24.5 27.96,-30.17 m 6.89,15.81 c -10.65,4.92 -17.51,15.85 -19.65,27.13 l 66.76,-0.21 c -1.06,-7.37 -3.68,-14.86 -9.08,-20.19 -9.46,-10.14 -25.63,-12.12 -38.03,-6.73 z m 105.66,1.45 c 6.97,-16.93 28.38,-25.82 45.31,-18.73 v 19.76 c -7.11,-2.8 -15.08,-4.53 -22.59,-2.32 -10.26,3.05 -17.85,12.2 -20.76,22.27 -2,6.8 -1.25,13.9 -1.17,20.87 -0.78,9.02 0.39,18.05 -0.2,27.07 0.48,7.79 -0.42,15.58 0.24,23.38 -6.22,0.3 -12.44,-0.02 -18.65,0.19 -0.36,-23.51 -0.05,-47.03 -0.15,-70.55 l 0.14,-39.59 c 5.83,0.16 11.67,-0.02 17.51,0.12 0.53,5.84 -0.65,11.71 0.32,17.53 z M 483.27,101.21 c 6.2,0.26 12.45,-0.37 18.62,0.33 l -0.09,65.54 c -0.06,8.01 1.08,16.76 6.62,22.98 7.15,7.92 19.26,9.37 29.04,6.24 13.07,-4.68 22.19,-18.52 21.66,-32.36 l 0.2,-62.73 18.67,0.04 -0.11,110.05 c -5.92,-0.1 -11.83,0 -17.74,-0.07 l -0.07,-15.66 c -3.83,4.81 -7.85,9.68 -13.34,12.71 -11.24,7.09 -25.5,8.03 -38.09,4.4 -8.12,-2.45 -15.19,-8.14 -19.26,-15.58 -4.83,-8.18 -6.05,-17.85 -6.33,-27.17 z"
     id="path4" />
  <path
     fill="#1fbcfd"
     d="m 60.77,192.47 40.71,-40.66 40.84,40.59 0.17,0.18 -41,40.62 z"
     id="path6" />
  <path
     fill="#08589c"
     d="m 101.49,233.2 41,-40.62 70.83,70.9 c -26.68,0.06 -53.35,-0.02 -80.02,0.04 -1.52,0.34 -2.46,-1.05 -3.43,-1.91 z"
     id="path8" />
</svg>
